Coordinates
version=1
nRows=6
nColumns=34
inDegrees=yes

Units are S.I. units (second, meters, Newtons, ...)
If the header above contains a line with 'inDegrees', this indicates whether rotational values are in degrees (yes) or radians (no).

endheader
time	pelvis_tilt	pelvis_list	pelvis_rotation	pelvis_tx	pelvis_ty	pelvis_tz	hip_flexion_r	hip_adduction_r	hip_rotation_r	knee_angle_r	ankle_angle_r	subtalar_angle_r	mtp_angle_r	hip_flexion_l	hip_adduction_l	hip_rotation_l	knee_angle_l	ankle_angle_l	subtalar_angle_l	mtp_angle_l	lumbar_extension	lumbar_bending	lumbar_rotation	arm_flex_r	arm_add_r	arm_rot_r	elbow_flex_r	pro_sup_r	arm_flex_l	arm_add_l	arm_rot_l	elbow_flex_l	pro_sup_l
      1.75000000	     -9.78188174	     -0.03677547	      4.47576622	      0.36467202	      1.58380464	     -0.12807919	      5.21623045	     -0.10368289	     -5.84800117	      0.19576231	      3.69700008	     -9.51680964	      0.00000000	      8.30577096	      2.57736094	     -8.77396454	      5.80809834	      1.74768571	     -9.12475395	      0.00000000	      1.73564775	     -2.59436233	     -6.82357687	     -3.76239153	     -7.91143757	     -6.92602192	     27.34632862	     95.75886940	   -181.75372494	   -168.83518549	   -178.01484739	     22.14759232	     72.99486232
      1.76666670	     -9.83003002	     -0.20797558	      4.87298005	      0.37474965	      1.58425459	     -0.13272511	      5.40356835	     -0.07876242	     -5.93660506	      0.71719083	      3.95466891	     -9.86467145	      0.00000000	      8.06036235	      2.45793547	     -8.56130175	      5.67155278	      1.58263521	     -9.20006326	      0.00000000	      1.43938582	     -2.96948144	     -6.73803563	     -4.58857555	     -7.75489714	     -6.99053655	     27.12360844	     95.43869473	   -182.85666920	   -169.57951647	   -177.60237658	     21.20466055	     73.26210452
      1.78333330	    -10.21291867	     -0.42022516	      5.02283117	      0.36422755	      1.58357894	     -0.13741691	      6.37541235	     -0.10745762	     -6.20431670	      1.80247246	      4.33075525	    -10.52319070	      0.00000000	      8.46093092	      2.37905519	     -8.21736362	      5.67016902	      1.56793813	     -9.94169514	      0.00000000	      1.39621989	     -3.09622750	     -6.16069516	     -5.27899126	     -7.80606383	     -7.36798171	     27.83576187	     94.18879001	   -182.69726654	   -170.50811173	   -175.95627065	     18.58736169	     74.40171703
      1.80000000	    -10.18467226	     -0.41230339	      4.95953416	      0.36414018	      1.58440548	     -0.13764683	      7.03496307	     -0.29489328	     -6.14027713	      3.04852061	      4.67269027	    -11.21927101	      0.00000000	      8.46051616	      2.45096185	     -8.20327651	      5.61984469	      1.43515418	    -10.17849478	      0.00000000	      0.62156569	     -3.41641014	     -6.79670578	     -4.85542144	     -7.51618621	     -7.58838590	     28.78078912	     93.79811019	   -183.40802084	   -171.04739687	   -175.21375354	     17.81553849	     74.80649772
      1.81666670	    -10.40198355	     -0.42526118	      4.85434928	      0.35231669	      1.58421493	     -0.15039293	      8.46611730	     -0.71713417	     -6.36378321	      4.92036870	      5.28376281	    -11.77248114	      0.00000000	      9.00069059	      2.70418893	     -8.14861176	      5.73532940	      1.50774346	    -10.30357720	      0.00000000	     -0.42929324	     -3.48798523	     -6.89017183	     -3.67038353	     -7.59920868	     -7.57006314	     29.73284389	     93.70793172	   -183.16190225	   -171.65734207	   -174.87777956	     17.48629344	     74.96374840
      1.83333330	    -10.87231495	     -0.43292899	      4.84208059	      0.35240405	      1.58408047	     -0.15052149	     10.23108314	     -1.12857465	     -6.32753801	      6.91020832	      5.39880929	    -12.88318037	      0.00000000	      9.86446081	      2.99681513	     -7.69316931	      5.94432576	      1.40233464	    -11.19912623	      0.00000000	     -0.96310269	     -3.65508244	     -6.88439382	     -3.93292165	     -7.48987368	     -7.40300794	     33.37255635	     93.17341285	   -182.98986829	   -172.00860707	   -172.80722137	     16.09830736	     76.08542325
